<svg version="1" xmlns="http://www.w3.org/2000/svg" width="800" height="800" viewBox="0 0 600.000000 600.000000"><path d="M279.8.5c-.1.1-4 .6-8.6.9-4.5.4-8.8.9-9.5 1.1-.6.2-3.4.6-6.2.9-5.5.6-21.2 3.7-30.8 6.2-43.2 10.9-86.8 33.9-120.9 63.5C89.4 85.6 69.3 107 60.7 119c-.9 1.4-4 5.6-6.8 9.5-4.7 6.6-7.5 11.1-14.2 22.3-4.1 7.2-15.3 30.3-18.6 38.4-4.6 11.7-11.4 33.6-13.7 44.3-5.2 23.9-6.9 40.7-6.8 68 0 22.2.5 29.7 2.9 44 .3 1.6.9 5.7 1.5 9 2 12.3 9.5 40.2 12.9 48 .5 1.1 1.6 3.8 2.4 6 3.2 8.6 5.4 13.5 12.3 27.1 17.9 35.3 40.4 64.1 70.5 90.7 36.6 32.1 82.6 55.5 130.4 66.2 11.9 2.6 13.1 2.9 21.5 4 2.5.3 5.4.8 6.5 1 13 2.6 63.6 2.7 77.1.1 1-.2 5.4-.9 9.7-1.6 10.4-1.5 12.9-2 14.9-2.6.9-.3 2.5-.6 3.5-.8 12.2-2.5 36.6-10.5 52.3-17.2 46.4-20.1 89.3-53.6 119.3-93.4 3.2-4.1 6.2-8.1 6.8-8.8 3.4-4.1 16.2-25.6 22-36.7 14.7-28.9 26.5-65.5 29.5-92 .3-3.3.8-6.3 1-6.6 2.5-4.2 2.4-65.4-.1-77.4-.3-1.1-.6-3.4-.9-5-2.7-18.6-9.5-45.9-14.6-58-.4-1.1-1.8-4.7-3.1-8-6.3-16.7-17.5-38-29.6-56.2C525 96.8 488.7 62.5 451 40.6c-7.7-4.5-34.2-17.3-40.5-19.6-25.2-9.2-45.4-14.6-65.2-17.5-5.4-.7-11.8-1.7-14.3-2-4.6-.7-50.5-1.6-51.2-1z"/></svg>