<svg version="1" xmlns="http://www.w3.org/2000/svg" width="1066.667" height="1066.667" viewBox="0 0 800.000000 800.000000"><path d="M0 400v400h800V0H0v400zm114-181c13.4 2.2 25.1 7.1 35.7 15.2 2.9 2.2 13.5 13.2 23.5 24.5 21.5 24.2 23.7 25.8 34.8 25.8 5.4 0 8.5-.6 11-1.9 1.9-1 13.4-11.9 25.5-24.1 24.1-24.3 27.1-26.5 42-30.6 10.3-2.8 25.6-2.4 35.5 1 11.9 4.1 17.4 8.4 42.5 33.1 25.9 25.5 26.7 26 37.3 26 8.1 0 13.1-3.5 38.2-27.4 34.3-32.4 39.2-35.1 63.5-35.1 12.7.1 14.6.3 20.7 2.7 11.5 4.6 17.3 9.2 37.6 29.9 10.7 11 21 20.8 22.7 21.9 7.7 4.8 19 4.6 26.6-.5 2-1.3 10.2-10.4 18.2-20.2 16.4-20 21.3-24.4 34.2-30.9 19.6-9.7 40.7-10 47.3-.7 5 7.2 5.1 15.3.2 22.1-3.5 4.9-7.8 6.9-16.5 7.8-9.4.9-16.3 3.6-21.9 8.5-2.6 2.3-10.2 11-17 19.3-14.4 17.7-19.9 22.9-29.3 27.9-9.1 4.7-17.9 6.9-28.5 6.9-11.1 0-17.2-1.4-27.8-6.5-8-3.8-9.8-5.2-31.5-26.7-24.8-24.5-26-25.3-36.1-25.2-9.1.1-12.3 2.3-38.3 26.8-26.1 24.6-32.9 29.8-44.3 33.5-10.2 3.3-27.1 3.4-37.3.2-13.2-4.2-18.3-8.1-42.5-32.5-24.9-25.1-27.2-26.8-37.5-26.8s-12.7 1.8-36.5 25.9c-20.4 20.8-21.9 22.1-30 26-19 9.2-37.1 9.3-55.5.2-10.7-5.3-12.8-7.2-32.1-28.9-9.1-10.3-18-20-19.8-21.6-5.2-4.8-14.3-8.4-23.1-9.4-4.5-.5-9.5-1.7-11.2-2.5-11.6-6.1-12.2-24.6-1-31.2 6-3.6 10.4-4.1 20.7-2.5zm13.5 132.4c9 2.9 18.6 8.2 25.2 14 2.4 2.1 12.1 12.4 21.6 23 9.4 10.5 17.8 19.7 18.7 20.4 6.2 5.3 17.9 6.8 26 3.1 3.3-1.4 10.3-7.8 26-23.8 20.4-20.8 21.9-22.1 30-26 18.8-9.1 37.6-9.2 56-.3 6.8 3.2 9.9 6 32 27.8 16.3 16.1 25.8 24.8 28.5 25.9 6.1 2.7 15.3 2.4 20.9-.6 2.5-1.3 14.6-11.9 26.9-23.4 26.5-25.1 29.3-27.5 37.7-31.4 19.4-9.2 42.6-7.7 60.3 3.8 3.5 2.3 15.1 12.9 26.6 24.5 11.2 11.3 22 21.3 24 22.3 2.5 1.2 5.8 1.8 10.6 1.8 11.7-.1 14.2-2.1 34.2-27.1 19-23.6 35-33.2 58.5-35.1 9.4-.7 15.2 1.1 19.7 6.3 3.7 4.2 4.5 6.9 3.9 13.9-.5 6.2-3.9 11.5-9.1 14.2-1.7.9-6.7 2-11 2.4-8.8.9-16.4 3.9-22 8.9-2 1.7-9 9.8-15.6 17.9-6.5 8-14.5 17.1-17.8 20.2-15.6 14.4-40.2 19.5-60.6 12.4-12.4-4.3-17.1-7.8-39.2-30.2-11.5-11.6-22.6-21.9-24.5-22.9-4.9-2.6-17.2-2.6-22.3 0-2.1 1-12.9 10.5-24 21-30.1 28.4-31.2 29.3-40.1 33.5-9.8 4.7-16 6.1-27.4 6.1-10.6 0-18.2-1.8-28.2-6.7-6.7-3.3-9.9-6-31.5-27.3-13.2-13.1-25.5-24.5-27.4-25.5-5.2-2.6-13-3-19.2-1-4.9 1.7-7.5 3.9-27.9 24.5-24.7 24.9-28 27.3-42.6 31-14.7 3.8-28.8 2.3-42.9-4.4-10.1-4.8-12.9-7.4-34-30.8-22.4-25-25.4-27.1-40.1-28.9-9.8-1.2-12.6-2.3-16.6-6.6-3.3-3.5-4.8-7.3-4.8-12.3 0-7.2 4.1-13.6 10.5-16.6 4.8-2.3 21.2-1.2 31 2zm-3 126.6c17.6 5.6 25 11.3 48.6 37.6 21.3 23.9 23.8 25.8 34.4 25.7 10.1 0 12-1.3 36-25.7 18.9-19.1 23-22.8 29-25.8 15.1-7.8 32.7-9.4 48.1-4.4 12.7 4.1 18.8 8.8 43.4 33.1 12.4 12.3 24.1 23.1 26 24.1 5.2 2.7 15.3 2.5 21-.4 2.7-1.3 14.5-11.6 28.8-25.1 13.4-12.7 26.5-24.4 29.1-26 19.8-12.7 45.5-13.1 65.8-.9 3.6 2.1 13.2 11 26.2 24.2 15.4 15.6 21.9 21.4 25.6 23.2 8.5 4 19 2.9 25.9-2.8 1.9-1.5 8.8-9.5 15.4-17.6 18.5-22.8 26.9-29.8 43-35.6 8.5-3 21.8-5.1 27.5-4.2 17.7 2.8 21.6 26.5 5.7 34.6-2.2 1.1-5.9 2-8.2 2-5.8 0-13.9 2.3-19.1 5.3-5.1 3-8.9 7-22.6 24.1-12.2 15.1-16.9 19.8-25.3 24.9-8.7 5.2-17.5 7.8-28.8 8.4-11.6.6-20.2-1.2-31-6.4-6.7-3.3-10-6.1-30-25.9-12.4-12.2-24.1-23-26-24-5.1-2.7-16.2-2.5-21.5.3-2.2 1.1-15 12.4-28.4 25.1-13.4 12.6-26.7 24.4-29.7 26.2-16.9 10.2-33.8 12.3-52.5 6.4-12.4-3.9-18.5-8.6-41.9-32.3-13.9-14.1-23.1-22.7-26-24.2-6.2-3.1-15.8-3.2-21.9 0-2.8 1.4-12.6 10.6-26 24.1-18.5 18.6-22.6 22.2-28.6 25.3-9.5 4.8-18.2 6.9-28.7 6.9-10.1 0-16.8-1.4-25.7-5.4-10.2-4.5-15.8-9.5-34.1-30-9.5-10.6-19.1-20.8-21.3-22.7-6.1-4.8-12.1-7.1-21.4-8.1-9.5-1-13.2-2.6-17-7.6-2.1-2.9-2.8-5-3.1-9.9-.6-8.6 2.3-13.7 10.3-18 4.1-2.3 19.5-1.4 29 1.5z"/></svg>